<?xml version="1.0" encoding="UTF-8" standalone="no"?>
<svg
   xmlns:dc="http://purl.org/dc/elements/1.1/"
   xmlns:cc="http://creativecommons.org/ns#"
   xmlns:rdf="http://www.w3.org/1999/02/22-rdf-syntax-ns#"
   xmlns:svg="http://www.w3.org/2000/svg"
   xmlns="http://www.w3.org/2000/svg"
   xmlns:sodipodi="http://sodipodi.sourceforge.net/DTD/sodipodi-0.dtd"
   xmlns:inkscape="http://www.inkscape.org/namespaces/inkscape"
   viewBox="0 0 400 225"
   version="1.1"
   id="svg4543"
   sodipodi:docname="icon.svg"
   inkscape:version="0.92.0 r15299">
  <metadata
     id="metadata4547">
    <rdf:RDF>
      <cc:Work
         rdf:about="">
        <dc:format>image/svg+xml</dc:format>
        <dc:type
           rdf:resource="http://purl.org/dc/dcmitype/StillImage" />
      </cc:Work>
    </rdf:RDF>
  </metadata>
  <sodipodi:namedview
     pagecolor="#ffffff"
     bordercolor="#666666"
     borderopacity="1"
     objecttolerance="10"
     gridtolerance="10"
     guidetolerance="10"
     inkscape:pageopacity="0"
     inkscape:pageshadow="2"
     inkscape:window-width="1600"
     inkscape:window-height="847"
     id="namedview4545"
     showgrid="false"
     inkscape:zoom="2.52"
     inkscape:cx="200"
     inkscape:cy="112.5"
     inkscape:window-x="-8"
     inkscape:window-y="-8"
     inkscape:window-maximized="1"
     inkscape:current-layer="svg4543" />
  <defs
     id="defs4487">
    <style
       id="style4485">
      .cls-1 {
        isolation: isolate;
      }

      .cls-2 {
        fill: #3d6084;
      }

      .cls-3 {
        opacity: 0.2;
        mix-blend-mode: multiply;
      }

      .cls-4 {
        fill: #fff;
      }

      .cls-5 {
        fill: none;
      }
    </style>
  </defs>
  <title
     id="title4489">arithmetic quiz</title>
  <g
     class="cls-1"
     id="g4541">
    <g
       id="Layer_2"
       data-name="Layer 2">
      <g
         id="arithmetic_quiz"
         data-name="arithmetic quiz">
        <g
           id="g4535">
          <circle
             class="cls-2"
             cx="204"
             cy="113.5"
             r="87.63"
             id="circle4491" />
          <g
             id="g4533">
            <g
               class="cls-3"
               id="g4509">
              <rect
                 x="161.02"
                 y="83.54"
                 width="39.07"
                 height="9.28"
                 id="rect4493" />
              <rect
                 x="175.91"
                 y="68.64"
                 width="9.28"
                 height="39.07"
                 id="rect4495" />
              <rect
                 x="161.02"
                 y="140.63"
                 width="39.07"
                 height="9.28"
                 transform="translate(-49.84 170.22) rotate(-45)"
                 id="rect4497" />
              <rect
                 x="175.91"
                 y="125.73"
                 width="9.28"
                 height="39.07"
                 transform="translate(-49.84 170.22) rotate(-45)"
                 id="rect4499" />
              <rect
                 x="215.56"
                 y="83.54"
                 width="36.66"
                 height="9.28"
                 id="rect4501" />
              <rect
                 x="215.56"
                 y="140.63"
                 width="36.66"
                 height="9.28"
                 id="rect4503" />
              <circle
                 cx="233.61"
                 cy="132.89"
                 r="5.9"
                 id="circle4505" />
              <circle
                 cx="233.61"
                 cy="157.52"
                 r="5.9"
                 id="circle4507" />
            </g>
            <g
               id="g4531">
              <g
                 id="g4515">
                <rect
                   class="cls-4"
                   x="158.39"
                   y="80.92"
                   width="39.07"
                   height="9.28"
                   id="rect4511" />
                <rect
                   class="cls-4"
                   x="173.29"
                   y="66.02"
                   width="9.28"
                   height="39.07"
                   id="rect4513" />
              </g>
              <g
                 id="g4521">
                <rect
                   class="cls-4"
                   x="158.39"
                   y="138.01"
                   width="39.07"
                   height="9.28"
                   transform="translate(-48.75 167.6) rotate(-45)"
                   id="rect4517" />
                <rect
                   class="cls-4"
                   x="173.29"
                   y="123.11"
                   width="9.28"
                   height="39.07"
                   transform="translate(-48.75 167.6) rotate(-45)"
                   id="rect4519" />
              </g>
              <rect
                 class="cls-4"
                 x="212.94"
                 y="80.92"
                 width="36.66"
                 height="9.28"
                 id="rect4523" />
              <rect
                 class="cls-4"
                 x="212.94"
                 y="138.01"
                 width="36.66"
                 height="9.28"
                 id="rect4525" />
              <circle
                 class="cls-4"
                 cx="230.99"
                 cy="130.27"
                 r="5.9"
                 id="circle4527" />
              <circle
                 class="cls-4"
                 cx="230.99"
                 cy="154.9"
                 r="5.9"
                 id="circle4529" />
            </g>
          </g>
        </g>
        <rect
           class="cls-5"
           width="400"
           height="225"
           id="rect4537" />
      </g>
    </g>
  </g>
  <path
     style="fill:#ffcc00;fill-opacity:1;stroke-width:0.3968254"
     d="m 195.6746,200.56635 c -12.50208,-1.55503 -21.92448,-4.33314 -31.66333,-9.33564 -18.26101,-9.38004 -33.21635,-25.67798 -40.89291,-44.56404 -13.3113,-32.74879 -5.8852,-69.843995 18.98481,-94.833841 6.98592,-7.019578 14.06455,-12.089282 23.23168,-16.638506 8.92436,-4.428744 18.60521,-7.32881 28.54363,-8.550734 4.30814,-0.529684 15.90548,-0.53336 20.25891,-0.0064 29.55287,3.577072 55.27627,21.751088 68.22782,48.204102 6.2457,12.756575 8.92722,24.397579 8.9124,38.690479 -0.0169,16.26234 -3.76087,30.27858 -11.72987,43.9124 -13.89931,23.77974 -37.56423,39.36635 -65.00885,42.81726 -4.08123,0.51318 -15.68236,0.70071 -18.86429,0.30494 z m 41.04691,-38.17101 c 2.63193,-1.89965 3.42562,-4.81625 2.04636,-7.51983 -0.947,-1.85628 -3.18668,-3.24853 -5.22581,-3.24853 -1.94498,0 -4.22105,1.49671 -5.12933,3.37295 -0.93484,1.93113 -0.98874,2.9408 -0.24959,4.67551 1.46457,3.43719 5.69976,4.78316 8.55837,2.7199 z m -51.06259,-5.30765 5.2621,5.25127 3.2685,-3.26849 3.26849,-3.26849 -5.25127,-5.2621 -5.25127,-5.2621 5.34737,-5.3584 5.34737,-5.3584 -3.2683,-3.26829 -3.26829,-3.26829 -5.3584,5.34736 -5.35839,5.34737 -5.26526,-5.25442 -5.26526,-5.25442 -3.06808,3.08617 c -1.68744,1.6974 -3.06807,3.25831 -3.06807,3.46871 0,0.21039 2.27421,2.66179 5.0538,5.44757 l 5.05379,5.06504 -5.05379,5.06504 c -2.77959,2.78577 -5.0538,5.23718 -5.0538,5.44757 0,0.21039 1.38063,1.7713 3.06807,3.4687 l 3.06808,3.08618 5.26526,-5.25442 5.26526,-5.25443 z m 66.5633,-11.80991 v -4.76191 h -18.25397 -18.25396 v 4.76191 4.7619 h 18.25396 18.25397 z m -15.50071,-7.48562 c 4.63163,-3.34297 3.02952,-10.04085 -2.55223,-10.67 -3.68623,-0.41549 -6.95312,3.06114 -6.33911,6.74609 0.31094,1.86612 2.60218,4.45531 4.23889,4.79012 1.44114,0.2948 3.60106,-0.10734 4.65245,-0.86621 z m -51.56278,-37.54531 v -7.332513 l 7.44048,-0.10796 7.44047,-0.107964 v -4.563492 -4.563492 l -7.44047,-0.107965 -7.44048,-0.10796 v -7.332516 -7.332512 h -4.56349 -4.56349 v 7.332512 7.332516 l -7.44048,0.10796 -7.44048,0.107965 -0.1118,4.662698 -0.1118,4.662698 h 7.55228 7.55228 v 7.341275 7.34127 h 4.56349 4.56349 z m 67.06349,-12.111929 v -4.761905 h -18.25397 -18.25396 v 4.761905 4.761904 h 18.25396 18.25397 z"
     id="path4549"
     inkscape:connector-curvature="0" />
  <path
     style="fill:#ffcc00;fill-opacity:1;stroke-width:0.3968254"
     d="m 176.03175,100.2381 v -7.341275 h -7.59161 -7.5916 l 0.24596,-1.488095 c 0.13529,-0.818452 0.24794,-2.872024 0.25034,-4.563492 l 0.004,-3.075397 5.85317,-0.0044 c 3.21925,-0.0024 6.52282,-0.115053 7.34127,-0.250334 l 1.4881,-0.245967 v -7.289348 -7.289349 h 4.56349 4.56349 v 7.289349 7.289348 l 1.4881,0.245967 c 0.81845,0.135281 4.12202,0.247932 7.34127,0.250334 l 5.85317,0.0044 V 88.134921 92.5 h -5.50017 c -3.02509,0 -6.32867,0.113558 -7.34127,0.252351 l -1.8411,0.252351 v 7.287328 7.28734 h -4.56349 -4.56349 z"
     id="path4551"
     inkscape:connector-curvature="0" />
  <path
     style="fill:#ffcc00;fill-opacity:1;stroke-width:0.3968254"
     d="m 190.51587,199.62381 c -20.50121,-3.47072 -37.42983,-12.64008 -51.10343,-27.68008 -12.09603,-13.30478 -19.64185,-29.71802 -21.92853,-47.6977 -0.90628,-7.12585 -0.63761,-19.20591 0.56925,-25.595236 3.07575,-16.28358 9.53319,-29.878163 20.00526,-42.116269 13.33743,-15.586706 32.34715,-26.065156 53.18096,-29.31418 3.50162,-0.546075 6.21366,-0.635876 14.68254,-0.486169 9.35031,0.165289 10.88294,0.289807 15.34792,1.246942 19.45908,4.171336 37.08497,14.611856 49.29841,29.201422 9.19996,10.989797 16.42187,25.868837 18.92893,38.998575 2.30491,12.071015 2.01911,26.545905 -0.75391,38.183965 -2.03903,8.55758 -6.9303,19.60935 -12.10237,27.34513 -13.9264,20.82951 -35.89654,34.67792 -60.4483,38.1023 -6.41063,0.89413 -19.86463,0.79526 -25.67673,-0.1887 z m 46.29152,-37.09677 c 1.65515,-1.24848 2.44108,-2.61027 2.60403,-4.512 0.55043,-6.42388 -8.08489,-8.92504 -11.01106,-3.18927 -1.50617,2.95233 -0.65607,6.0214 2.14385,7.73985 1.93069,1.18497 4.6634,1.16813 6.26318,-0.0386 z m -61.4756,-5.23957 5.06504,-5.0538 5.06504,5.0538 c 2.78577,2.77959 5.23718,5.0538 5.44757,5.0538 0.51165,0 6.55088,-6.02255 6.55088,-6.53279 0,-0.22034 -2.27426,-2.67994 -5.05391,-5.46577 l -5.0539,-5.06515 5.34735,-5.35837 5.34735,-5.35838 -3.46671,-3.46671 -3.46671,-3.4667 -5.35837,5.34735 -5.35838,5.34735 -5.06515,-5.05391 c -2.78583,-2.77965 -5.27143,-5.0539 -5.52355,-5.0539 -0.54018,0 -6.07483,5.96625 -6.07682,6.55069 -7.9e-4,0.21995 2.15614,2.67531 4.79309,5.45635 l 4.79446,5.05645 -4.79446,5.05644 c -2.63695,2.78105 -4.79384,5.2364 -4.79309,5.45635 0.002,0.58445 5.53664,6.5507 6.07682,6.5507 0.25212,0 2.73767,-2.27421 5.52345,-5.0538 z m 76.89043,-12.00969 v -4.76191 h -18.25397 -18.25396 v 4.76191 4.7619 h 18.25396 18.25397 z m -15.54584,-7.42155 c 2.76356,-2.0468 3.6257,-5.38442 2.05592,-7.95906 -2.43778,-3.9983 -8.47648,-3.74651 -10.4613,0.43619 -1.28939,2.71719 -0.6589,5.0807 1.97142,7.39014 1.33358,1.1709 1.65846,1.27592 3.42285,1.10638 1.07217,-0.10302 2.42717,-0.54117 3.01111,-0.97365 z M 200.2381,88.134921 v -4.761905 l -7.24207,0.08944 -7.24206,0.08945 7.04365,0.118127 7.04365,0.118123 v 4.346766 4.346766 l -7.04365,0.118123 -7.04365,0.118127 7.24206,0.08944 7.24207,0.08944 z m 51.98412,0 v -4.761905 h -18.25397 -18.25396 v 4.761905 4.761904 h 18.25396 18.25397 z m -83.81603,-4.464945 7.03032,-0.118071 -7.24207,-0.08945 -7.24206,-0.08944 0.0843,4.464286 0.0843,4.464285 0.12746,-4.25677 0.12747,-4.256769 z"
     id="path4553"
     inkscape:connector-curvature="0" />
  <path
     style="fill:#ffcc00;fill-opacity:1;stroke-width:0.3968254"
     d="m 193.69048,200.16508 c -2.9865,-0.38262 -11.43848,-2.16839 -14.57681,-3.07985 -13.73098,-3.98789 -26.38535,-11.61745 -37.06773,-22.34883 -16.28899,-16.36371 -25.14118,-37.96523 -25.14118,-61.35068 0,-10.21591 1.17505,-17.576605 4.34877,-27.241363 4.32366,-13.166599 11.20069,-24.276192 21.24497,-34.320465 13.01583,-13.015835 29.04781,-21.239092 47.56077,-24.395267 5.94008,-1.012692 20.84443,-1.133292 26.91777,-0.217808 27.78156,4.187744 52.29863,21.976744 64.78123,47.003715 6.17025,12.37102 8.73924,22.385662 9.22055,35.944198 0.81556,22.97443 -6.24357,43.14987 -21.17761,60.5269 -13.69677,15.93736 -33.92672,26.75324 -54.87017,29.33617 -3.11985,0.38477 -18.54351,0.48881 -21.24056,0.14328 z m 42.68981,-37.53564 c 2.21159,-1.49038 3.24296,-3.35259 3.04359,-5.49541 -0.32109,-3.45122 -3.10799,-5.78542 -6.45676,-5.40796 -3.90531,0.44018 -6.50336,4.86275 -4.79054,8.15475 1.72342,3.31235 5.49303,4.57535 8.20371,2.74862 z m -61.11181,-5.32333 5.16422,-5.03517 4.44635,4.35786 c 6.78628,6.6512 5.71515,6.28561 9.03455,3.08367 1.55563,-1.50059 3.00002,-3.04777 3.20977,-3.43818 0.31709,-0.59023 -0.47185,-1.5788 -4.68169,-5.86637 l -5.06305,-5.15653 5.33429,-5.34529 5.33429,-5.34529 -3.46671,-3.46671 -3.46671,-3.4667 -5.34006,5.32907 -5.34007,5.32908 -5.1647,-5.03563 c -2.84058,-2.7696 -5.32995,-5.03563 -5.53193,-5.03563 -0.41521,0 -6.00687,6.09623 -6.00687,6.54892 0,0.16114 2.16315,2.59284 4.80699,5.40378 l 4.807,5.11079 -4.807,5.11079 c -2.64384,2.81093 -4.80699,5.24264 -4.80699,5.40378 0,0.45268 5.59166,6.54892 6.00687,6.54892 0.20198,0 2.69113,-2.26582 5.53145,-5.03516 z m 76.95374,-12.02833 v -4.76191 h -18.25397 -18.25396 v 4.76191 4.7619 h 18.25396 18.25397 z m -15.50071,-7.46728 c 3.45892,-2.5621 3.63101,-7.31942 0.3517,-9.72262 -1.54059,-1.12901 -4.55218,-1.29817 -6.27956,-0.35273 -4.08455,2.23557 -4.00181,7.8486 0.15419,10.46068 1.47914,0.92965 4.24787,0.74487 5.77367,-0.38533 z M 200.2381,88.134921 v -4.761905 l -6.44842,0.08838 -6.44841,0.08837 6.25,0.120115 6.25,0.120115 v 4.344393 4.344393 l -5.85317,0.121274 -5.85318,0.121273 6.05159,0.08775 6.05159,0.08775 z m 51.98412,0 v -4.761905 h -18.25397 -18.25396 v 4.761905 4.761904 h 18.25396 18.25397 z m -84.60826,-4.465115 6.23525,-0.12004 -6.44842,-0.08837 -6.44841,-0.08838 0.0824,3.869047 0.0824,3.869048 0.13081,-3.660635 0.13081,-3.660631 z"
     id="path4555"
     inkscape:connector-curvature="0" />
  <path
     style="fill:#ffcc00;fill-opacity:1;stroke-width:0.3968254"
     d="m 190.25886,199.62802 c -9.49313,-1.67246 -16.43866,-3.87159 -24.34616,-7.7086 -22.98184,-11.15161 -40.19917,-32.25029 -46.39584,-56.85499 -1.78492,-7.0873 -2.27453,-10.80499 -2.49796,-18.96772 -0.3255,-11.89198 0.90532,-20.34146 4.48992,-30.823027 10.2237,-29.894664 35.24902,-51.405841 67.09448,-57.672835 7.10607,-1.398431 23.77541,-1.395137 31.07924,0.0061 27.20708,5.219828 50.0928,22.454954 62.23488,46.868783 4.41129,8.869698 7.23091,17.656262 8.45816,26.357559 0.80037,5.67477 0.69216,20.49211 -0.19099,26.15232 -5.39086,34.55029 -30.95271,62.53705 -64.90709,71.06446 -7.61021,1.91125 -12.06585,2.38991 -21.91573,2.35435 -6.80109,-0.0246 -9.86596,-0.20616 -13.10291,-0.77644 z m 46.4283,-37.183 c 2.66651,-1.99084 3.4132,-4.61456 2.09074,-7.3464 -1.9649,-4.05895 -6.75727,-4.5987 -9.7069,-1.09325 -3.26631,3.88178 -0.0148,9.88989 5.06131,9.35218 0.85412,-0.0905 2.0038,-0.50112 2.55485,-0.91253 z m -59.39526,-7.2052 3.04587,-2.94027 5.08597,4.82245 c 2.79729,2.65234 5.33563,4.82244 5.64077,4.82244 0.30514,0 1.88939,-1.35641 3.52057,-3.01426 l 2.96575,-3.01426 -1.72706,-1.84685 c -0.94988,-1.01576 -3.24393,-3.40997 -5.09788,-5.32045 l -3.37083,-3.47361 5.34607,-5.3571 5.34608,-5.3571 -3.46671,-3.46671 -3.46671,-3.4667 -5.35658,5.34555 -5.35658,5.34555 -3.0773,-2.97152 c -1.69251,-1.63433 -4.08139,-3.92391 -5.30862,-5.08796 l -2.23132,-2.11644 -2.729,2.84223 c -1.50095,1.56322 -2.86833,3.09102 -3.03863,3.3951 -0.21632,0.38627 1.09914,2.05632 4.36508,5.5417 2.57109,2.74384 4.67472,5.15412 4.67472,5.35617 0,0.20205 -2.10363,2.61233 -4.67472,5.35617 -3.33205,3.55592 -4.58374,5.15137 -4.35798,5.55479 0.17421,0.31129 1.54928,1.83149 3.05572,3.37823 l 2.73899,2.81225 2.21423,-2.09957 c 1.21783,-1.15476 3.58487,-3.42268 5.2601,-5.03983 z m 74.93032,-9.96204 v -4.76191 h -18.25397 -18.25396 v 4.76191 4.7619 h 18.25396 18.25397 z m -15.87314,-7.14279 c 1.29101,-0.69093 2.83895,-3.06675 3.05692,-4.69186 0.61135,-4.55793 -4.49407,-7.89259 -8.57346,-5.59985 -4.03103,2.26557 -4.00078,7.7705 0.0567,10.3169 1.35973,0.85334 3.83967,0.8419 5.45985,-0.0252 z M 200.2381,88.134921 v -4.761905 l -5.05953,0.0858 -5.05952,0.0858 4.86111,0.124825 4.86111,0.124826 v 4.34027 4.340273 l -4.6627,0.125675 -4.6627,0.125675 4.86111,0.08533 4.86112,0.08533 z m 51.98412,0 v -4.761905 h -18.25397 -18.25396 v 4.761905 4.761904 h 18.25396 18.25397 z m -85.99476,-4.465615 4.84397,-0.124687 -5.05953,-0.0858 -5.05952,-0.0858 0.0788,3.075397 0.0789,3.075397 0.1367,-2.864909 0.13671,-2.864909 z"
     id="path4557"
     inkscape:connector-curvature="0" />
  <path
     style="fill:#ffcc00;fill-opacity:1;stroke-width:0.3968254"
     d="m 190.25886,199.62802 c -2.3239,-0.40941 -6.01007,-1.19681 -8.19149,-1.74977 -20.63385,-5.23042 -38.87088,-18.29962 -50.93701,-36.503 -7.45731,-11.25034 -12.27333,-24.60287 -13.87241,-38.46149 -0.66216,-5.73874 -0.25115,-18.75973 0.77213,-24.461379 6.12078,-34.104464 31.42708,-61.164648 65.1135,-69.626253 5.92109,-1.487304 8.50533,-1.864949 14.91198,-2.179148 8.64315,-0.423882 17.60289,0.09746 23.61111,1.373849 26.33434,5.594512 48.66795,22.873972 60.47521,46.789544 5.85602,11.861333 8.38321,21.916262 8.83454,35.149947 0.60938,17.86782 -3.21522,33.39355 -11.7596,47.73735 -13.64701,22.90981 -36.87056,38.52239 -62.65009,42.11801 -6.48329,0.90426 -20.68502,0.80296 -26.30787,-0.18766 z m 46.35704,-37.16957 c 3.29641,-2.15989 3.65018,-6.62292 0.72832,-9.18834 -2.54641,-2.23578 -5.84663,-2.00954 -8.09846,0.55516 -1.43243,1.63144 -1.87153,3.5956 -1.235,5.52431 0.48622,1.47328 2.50258,3.38432 4.06974,3.85719 1.21045,0.36524 3.38297,0.007 4.5354,-0.74832 z m -56.22481,-9.8394 c 0.20381,0 2.59603,2.09821 5.31606,4.6627 2.72003,2.56448 5.0975,4.66269 5.28325,4.66269 0.18576,0 1.7224,-1.39282 3.41475,-3.09516 l 3.07702,-3.09517 -1.0435,-0.97229 c -0.57393,-0.53476 -2.84162,-2.90349 -5.03932,-5.26384 l -3.99582,-4.29154 5.32184,-5.33282 5.32184,-5.33281 -3.46671,-3.46671 -3.46671,-3.4667 -5.35374,5.34272 -5.35374,5.34272 -2.08808,-1.97022 c -1.14844,-1.08363 -3.52542,-3.36083 -5.28219,-5.06046 l -3.19413,-3.09022 -3.10251,3.18813 c -2.76215,2.83837 -3.04298,3.26266 -2.55984,3.86753 0.29846,0.37368 2.46231,2.73271 4.80854,5.24229 2.34623,2.50958 4.26587,4.66413 4.26587,4.78789 0,0.12375 -1.91964,2.2783 -4.26587,4.78789 -2.34623,2.50958 -4.51008,4.86861 -4.80854,5.24228 -0.48309,0.60481 -0.20524,1.02615 2.53064,3.83753 l 3.07331,3.15812 5.11851,-4.84228 c 2.81519,-2.66325 5.28527,-4.84227 5.48907,-4.84227 z m 71.83113,-7.34127 v -4.76191 h -18.25397 -18.25396 v 4.76191 4.7619 h 18.25396 18.25397 z m -15.6746,-7.47711 c 1.61353,-0.90962 3.14307,-4.01207 2.82021,-5.72042 -0.61948,-3.27785 -3.66235,-5.47067 -6.77983,-4.88583 -3.19353,0.59911 -5.53087,4.26565 -4.57179,7.1717 1.33406,4.04221 4.90408,5.47942 8.53141,3.43455 z M 200.2381,88.134921 v -4.761905 l -3.67064,0.0816 -3.67063,0.0816 3.47222,0.132262 3.47222,0.132262 v 4.333579 4.333584 l -3.27381,0.133686 -3.27381,0.133691 3.47222,0.08077 3.47223,0.08077 z m 51.98412,0 v -4.761905 h -18.25397 -18.25396 v 4.761905 4.761904 h 18.25396 18.25397 z m -87.38058,-4.466734 3.45201,-0.131969 -3.67063,-0.0816 -3.67064,-0.0816 0.0734,2.281746 0.0734,2.281746 0.14522,-2.068179 0.14522,-2.068178 z"
     id="path4559"
     inkscape:connector-curvature="0" />
  <path
     style="fill:#ffcc00;fill-opacity:1;stroke-width:0.3968254"
     d="m 215.71429,88.134921 v -4.761905 h 18.25396 18.25397 v 4.761905 4.761904 h -18.25397 -18.25396 z"
     id="path4561"
     inkscape:connector-curvature="0" />
  <path
     style="fill:#ffcc00;fill-opacity:1;stroke-width:0.3968254"
     d="m 230.91442,137.75556 c -4.63986,-2.8291 -3.24589,-9.63862 2.09638,-10.24077 4.66313,-0.5256 7.53512,3.90614 5.21082,8.04077 -1.54823,2.7541 -4.79519,3.73167 -7.3072,2.2 z"
     id="path4563"
     inkscape:connector-curvature="0" />
  <path
     style="fill:#ffcc00;fill-opacity:1;stroke-width:0.3968254"
     d="m 215.71429,145.27778 v -4.76191 h 18.25396 18.25397 v 4.76191 4.7619 h -18.25397 -18.25396 z"
     id="path4565"
     inkscape:connector-curvature="0" />
  <path
     style="fill:#ffcc00;fill-opacity:1;stroke-width:0.3968254"
     d="m 230.88923,162.34341 c -1.67098,-1.0188 -2.87039,-3.00949 -2.87039,-4.76404 0,-1.75456 1.19941,-3.74525 2.87039,-4.76405 4.72351,-2.87996 10.40432,2.99082 7.33699,7.58235 -1.71788,2.5715 -4.91853,3.4203 -7.33699,1.94574 z"
     id="path4567"
     inkscape:connector-curvature="0" />
  <path
     style="fill:#ffcc00;fill-opacity:1;stroke-width:0.3968254"
     d="m 166.98502,159.02415 c -1.57192,-1.62112 -2.85804,-3.07292 -2.85804,-3.22622 0,-0.15329 2.26817,-2.58876 5.04038,-5.41215 l 5.04037,-5.13343 -4.36306,-4.45157 c -6.67491,-6.81031 -6.32331,-5.69729 -2.91126,-9.21615 l 2.90964,-3.00073 5.27689,5.26603 5.27689,5.26603 5.3583,-5.34727 5.3583,-5.34728 3.06988,3.06989 3.06988,3.06988 -5.34727,5.3583 -5.34727,5.3583 5.25473,5.26557 5.25473,5.26557 -2.88862,2.86935 c -1.58875,1.57814 -3.04766,2.86935 -3.24202,2.86935 -0.19437,0 -2.64872,-2.27112 -5.45411,-5.04694 l -5.10072,-5.04693 -5.26979,5.25895 -5.2698,5.25895 z"
     id="path4569"
     inkscape:connector-curvature="0" />
  <path
     style="fill:#ffcc00;fill-opacity:1;stroke-width:0.3968254"
     d="m 167.19439,158.86176 c -1.46882,-1.48016 -2.67058,-2.86281 -2.67058,-3.07255 0,-0.20974 2.27091,-2.65731 5.04646,-5.43904 l 5.04646,-5.05769 -4.84805,-4.90385 c -2.74859,-2.78022 -4.84805,-5.22759 -4.84805,-5.65144 0,-0.41117 1.11229,-1.86985 2.47175,-3.2415 l 2.47175,-2.49392 5.26635,5.25551 5.26635,5.2555 5.35819,-5.34716 5.35819,-5.34716 2.87146,2.87147 2.87147,2.87147 -5.34716,5.35819 -5.34716,5.35819 5.25509,5.26593 5.25509,5.26593 -2.69119,2.67058 c -1.48016,1.46881 -2.86281,2.67057 -3.07255,2.67057 -0.20974,0 -2.66067,-2.27425 -5.4465,-5.0539 l -5.06515,-5.05391 -5.26582,5.25499 -5.26583,5.25499 z"
     id="path4571"
     inkscape:connector-curvature="0" />
  <rect
     style="fill:#ffcc00;fill-opacity:1"
     id="rect4573"
     width="106.74603"
     height="54.365078"
     x="153.96825"
     y="117.85714"
     rx="3.75788"
     ry="3.69327" />
  <rect
     style="fill:#ffcc00;fill-opacity:1"
     id="rect4575"
     width="118.25397"
     height="59.523811"
     x="145.63492"
     y="54.761906"
     rx="3.75788"
     ry="3.69327" />
  <text
     xml:space="preserve"
     style="font-style:normal;font-variant:normal;font-weight:normal;font-stretch:normal;font-size:24px;line-height:25px;font-family:'Open Sans';-inkscape-font-specification:'Open Sans, Normal';font-variant-ligatures:normal;font-variant-caps:normal;font-variant-numeric:normal;font-feature-settings:normal;text-align:start;letter-spacing:0px;word-spacing:0px;writing-mode:lr-tb;text-anchor:start;fill:#000000;fill-opacity:1;stroke:none"
     x="150.45349"
     y="134.49142"
     id="text4579"><tspan
       sodipodi:role="line"
       id="tspan4577"
       x="150.45349"
       y="134.49142"
       style="font-style:normal;font-variant:normal;font-weight:normal;font-stretch:normal;font-size:64px;font-family:Centrum-Poster;-inkscape-font-specification:Centrum-Poster">X = ?</tspan></text>
</svg>
